<?xml version="1.0" standalone="no"?>
<!DOCTYPE svg PUBLIC "-//W3C//DTD SVG 20010904//EN"
 "http://www.w3.org/TR/2001/REC-SVG-20010904/DTD/svg10.dtd">
<svg version="1.0" xmlns="http://www.w3.org/2000/svg"
 width="120.000000pt" height="120.000000pt" viewBox="0 0 120.000000 120.000000"
 preserveAspectRatio="xMidYMid meet">
<metadata>
Created by potrace 1.11, written by Peter Selinger 2001-2013
</metadata>
<g transform="translate(0.000000,120.000000) scale(0.100000,-0.100000)"
fill="#000000" stroke="none">
<path d="M470 1185 c-207 -47 -366 -191 -443 -405 -28 -78 -32 -243 -7 -331
89 -323 411 -511 731 -429 207 53 363 208 427 424 29 97 25 253 -11 348 -68
185 -209 323 -387 379 -86 27 -225 33 -310 14z m301 -45 c187 -63 327 -209
382 -396 24 -81 18 -252 -12 -336 -48 -132 -160 -261 -284 -324 -26 -14 -82
-33 -123 -42 -309 -73 -620 121 -691 430 -16 70 -7 230 16 300 51 152 167 279
316 346 117 53 278 61 396 22z"/>
<path d="M490 1119 c-71 -14 -200 -83 -254 -136 -140 -138 -195 -312 -156
-497 38 -184 172 -335 355 -400 67 -24 222 -29 294 -10 152 40 273 136 345
273 127 241 52 536 -174 686 -122 81 -271 112 -410 84z m74 -60 c12 18 23 12
28 -14 6 -27 -7 -44 -15 -23 -4 10 -8 9 -16 -2 -11 -16 -24 -8 -27 17 -4 23 7
38 16 23 5 -9 9 -9 14 -1z m119 5 c9 -3 12 -14 9 -30 -6 -30 -22 -32 -23 -1
l0 22 -11 -22 c-19 -40 -38 -21 -22 21 6 17 22 20 47 10z m-198 -24 c-4 -11
-2 -20 4 -20 23 0 10 -25 -14 -26 -14 -1 -25 2 -25 6 0 5 -3 15 -6 24 -4 11
-1 16 10 16 9 0 16 5 16 10 0 6 5 10 11 10 6 0 8 -9 4 -20z m279 -5 c2 -7 -2
-21 -9 -32 -11 -14 -18 -16 -31 -7 -25 15 -27 29 -9 47 17 17 40 13 49 -8z
m-338 -22 c18 -24 17 -31 -6 -43 -15 -8 -21 -6 -30 11 -22 40 9 67 36 32z
m402 4 c8 -9 5 -19 -9 -37 l-21 -25 6 30 c6 27 5 28 -7 13 -22 -28 -40 -22
-21 7 18 28 36 32 52 12z m-461 -44 c17 -35 10 -40 -21 -16 -19 15 -22 23 -13
32 16 16 21 14 34 -16z m496 11 c-5 -13 -2 -15 15 -9 26 8 28 -2 5 -27 -19
-22 -35 -24 -27 -4 4 11 0 13 -16 9 -22 -6 -22 -6 -5 21 19 29 38 36 28 10z
m-537 -38 c22 -23 17 -42 -6 -21 -23 21 -39 13 -20 -10 11 -13 9 -18 -9 -34
-11 -10 -21 -23 -21 -30 0 -18 -18 -13 -30 8 -18 34 -12 43 20 36 31 -7 39 2
18 23 -8 8 -8 15 2 27 16 19 27 19 46 1z m606 -32 c-22 -16 -6 -32 17 -17 15
10 22 8 35 -6 16 -17 15 -19 -8 -34 -28 -19 -44 -10 -18 10 15 12 15 13 -8 8
-19 -5 -31 0 -48 20 -22 25 -22 28 -7 45 15 17 18 17 35 2 18 -15 18 -16 2
-28z m-226 9 c203 -68 297 -284 205 -475 -36 -76 -90 -129 -170 -167 -47 -22
-70 -26 -141 -26 -103 0 -170 27 -238 95 -144 145 -139 365 12 504 85 78 222
106 332 69z m304 -83 c-12 -8 -12 -10 3 -16 24 -9 21 -19 -9 -33 -22 -10 -26
-9 -21 3 3 8 -2 17 -11 21 -15 6 -15 8 2 21 11 8 27 14 35 14 14 0 14 -2 1
-10z m-773 -36 c1 -5 -1 -15 -6 -23 -8 -12 -14 -13 -35 -3 -27 12 -37 36 -12
26 8 -3 17 0 21 6 8 12 27 9 32 -6z m808 -35 c-5 -15 -4 -19 4 -15 6 4 11 2
11 -4 0 -13 -41 -30 -55 -22 -5 3 -4 7 3 10 18 6 15 20 -5 25 -15 3 -14 6 7
15 37 16 42 14 35 -9z m-852 -22 c28 -10 19 -22 -15 -20 -18 1 -34 2 -36 2 -1
1 2 11 9 22 6 12 14 17 18 12 3 -5 14 -12 24 -16z m877 -37 c0 -5 -5 -10 -12
-10 -6 0 -3 -7 8 -15 10 -8 17 -15 14 -16 -45 -10 -59 -8 -54 6 3 8 1 15 -5
15 -18 0 -13 18 7 23 30 8 42 7 42 -3z m-906 -16 c9 -8 16 -11 16 -5 0 6 5 11
10 11 6 0 10 -9 10 -20 0 -15 -7 -20 -28 -20 -35 0 -41 6 -35 31 6 23 7 23 27
3z m914 -67 c0 -19 -6 -24 -29 -24 -28 0 -42 16 -16 18 9 0 9 2 -1 6 -19 7 -4
23 22 23 18 0 24 -6 24 -23z m-928 -2 c0 -8 5 -15 10 -15 6 0 10 7 10 15 0 16
16 20 24 6 11 -17 -20 -44 -42 -37 -22 7 -32 46 -12 46 6 0 10 -7 10 -15z
m100 -133 c0 -10 -8 -18 -17 -19 -27 -2 -73 -21 -73 -30 1 -28 17 -31 59 -12
35 15 46 17 53 7 13 -22 10 -25 -32 -32 -22 -3 -48 -15 -57 -26 -21 -25 -36
-26 -29 -2 3 9 -1 35 -8 57 l-14 40 43 13 c24 7 47 17 50 22 9 14 25 2 25 -18z
m809 14 c10 -11 6 -96 -4 -96 -2 0 -16 7 -31 15 -16 8 -42 15 -58 15 -22 0
-27 4 -22 16 3 9 6 20 6 25 0 6 7 5 18 0 28 -16 80 -30 86 -24 11 12 -15 31
-34 26 -24 -6 -25 0 -4 21 19 20 28 20 43 2z m-51 -156 c15 0 15 -1 0 -16 -15
-15 -18 -15 -39 0 -41 28 -54 19 -25 -18 22 -29 23 -36 11 -46 -12 -10 -15 -9
-15 4 0 9 -11 34 -25 57 -14 22 -23 44 -20 49 3 5 26 0 51 -10 25 -11 53 -20
62 -20z m-677 2 c26 -30 30 -41 23 -54 -6 -9 -10 -5 -14 11 -8 35 -20 35 -59
1 -33 -29 -33 -31 -15 -44 10 -8 22 -12 26 -10 5 3 8 1 8 -5 0 -24 -21 -19
-49 11 -36 38 -37 45 -13 52 11 4 29 18 42 31 28 30 31 30 51 7z m-24 -59 c-9
-9 -19 -14 -22 -11 -3 3 2 13 11 22 9 9 19 14 22 11 3 -3 -2 -13 -11 -22z
m534 2 c-1 -5 -9 -10 -18 -10 -27 0 -26 -27 2 -60 l25 -30 19 23 c18 21 38 18
23 -4 -14 -20 -84 -57 -81 -43 4 18 -26 75 -43 83 -10 5 -10 7 -1 12 7 3 23
14 35 24 24 20 40 22 39 5z m-411 -70 c-6 -27 -9 -54 -6 -61 7 -19 -10 -26
-23 -10 -8 9 -8 22 0 45 15 44 8 46 -28 11 -22 -21 -34 -27 -39 -19 -4 6 -1
15 7 19 8 5 32 22 53 39 22 17 41 30 43 27 2 -2 -1 -25 -7 -51z m420 8 c0 -13
-3 -13 -15 -3 -8 7 -15 19 -15 27 0 13 3 13 15 3 8 -7 15 -19 15 -27z m-112
-1 c2 -7 -2 -10 -12 -6 -9 3 -16 11 -16 16 0 13 23 5 28 -10z m-207 -12 c-2
-8 -6 -24 -9 -34 -3 -12 -1 -17 6 -12 7 4 7 -3 -1 -24 -7 -19 -17 -28 -25 -25
-8 3 -17 5 -22 5 -5 0 -2 14 7 31 8 16 13 41 10 55 -4 21 -1 25 17 22 13 -2
20 -9 17 -18z m174 -12 c4 -18 13 -43 21 -55 8 -13 11 -23 7 -23 -5 0 -17 -3
-28 -6 -16 -4 -20 0 -20 23 -1 15 -4 43 -9 61 -6 25 -4 32 7 32 9 0 18 -13 22
-32z m-101 13 c4 -5 2 -11 -4 -13 -6 -2 -11 -24 -12 -51 -2 -37 -6 -47 -20
-47 -21 0 -32 16 -17 26 6 3 9 19 5 35 -3 15 -1 31 4 34 6 4 8 11 5 16 -4 5 3
9 14 9 11 0 22 -4 25 -9z m56 0 c0 -12 -20 -25 -27 -18 -7 7 6 27 18 27 5 0 9
-4 9 -9z"/>
<path d="M725 1029 c-10 -15 3 -25 16 -12 7 7 7 13 1 17 -6 3 -14 1 -17 -5z"/>
<path d="M407 999 c7 -7 15 -10 18 -7 3 3 -2 9 -12 12 -14 6 -15 5 -6 -5z"/>
<path d="M501 863 c3 -20 -2 -24 -15 -14 -8 7 -17 8 -20 3 -8 -13 13 -28 47
-34 20 -4 32 0 42 15 17 25 12 35 -10 17 -12 -10 -15 -10 -15 4 0 9 -7 16 -15
16 -8 0 -14 -3 -14 -7z"/>
<path d="M500 790 c0 -11 7 -20 15 -20 8 0 15 6 15 14 0 8 -7 16 -15 20 -10 4
-15 -1 -15 -14z"/>
<path d="M684 781 c14 -15 16 -44 17 -194 0 -97 -2 -180 -5 -185 -2 -4 -43 -9
-90 -10 l-86 -3 3 32 c2 23 8 33 21 35 36 5 60 41 57 86 -1 23 -42 60 -58 54
-10 -4 -13 15 -13 80 0 76 -2 85 -17 82 -12 -2 -17 -11 -15 -24 2 -18 -4 -22
-38 -27 -65 -8 -92 -62 -47 -92 13 -8 37 -18 55 -21 32 -6 32 -7 32 -65 0 -63
-8 -71 -40 -39 -16 16 -18 25 -10 40 15 27 12 32 -9 18 -44 -27 -22 -88 32
-91 28 -2 29 -4 29 -53 l0 -32 105 -1 c59 -1 110 -4 115 -7 5 -3 14 -18 20
-32 l11 -27 7 25 c13 40 11 60 -4 60 -22 0 -24 19 -24 202 -1 133 2 171 14
182 22 22 18 26 -33 26 -44 0 -45 -1 -29 -19z m-184 -126 c0 -51 -8 -55 -47
-21 l-27 24 34 21 c19 11 36 21 38 21 1 0 2 -20 2 -45z m60 -95 c31 -31 25
-57 -17 -79 -21 -11 -22 -10 -20 44 1 30 5 55 10 55 4 0 16 -9 27 -20z"/>
<path d="M545 709 c-10 -15 0 -21 30 -21 32 0 44 10 25 22 -20 13 -47 12 -55
-1z"/>
</g>
</svg>
