<svg xmlns="http://www.w3.org/2000/svg" viewBox="0 0 238.16 104.88">
    <g data-name="Слой 1">
        <path d="M65.3 103.51H42.66V82.8H0v-16l.17-.25 44.12-65h21v62.84h12V82.8h-12zm-20.64-2H63.3V80.8h12V66.39h-12V3.57h-18L2 67.41V80.8h42.66zm0-35.12H17.73l19.35-29.23a75.66 75.66 0 0 0 6-10.8l.27-.59h2.36l-.18 1.16c-.09.57-.26 2.64-.54 9.25-.23 5.32-.34 9.45-.34 12.26zm-23.2-2h21.2v-16c0-2.84.12-7 .34-12.35.09-2.21.18-4 .26-5.49a79.15 79.15 0 0 1-4.51 7.66zM119.44 104.88c-11.83 0-20.88-4.52-26.91-13.43s-9-21.88-9-38.91c0-17.76 2.93-31.07 8.72-39.56s15-13 27.15-13c11.83 0 20.9 4.56 27 13.57s9 22 9 39c0 17.58-2.94 30.81-8.75 39.32s-15.02 13.01-27.21 13.01zm0-102.88C108 2 99.42 6.07 93.95 14.11s-8.37 21.09-8.37 38.44c0 16.63 2.9 29.34 8.61 37.79s14.13 12.55 25.25 12.55c11.49 0 20.1-4.08 25.6-12.14s8.4-21 8.4-38.2c0-16.58-2.92-29.32-8.68-37.86S130.56 2 119.44 2zm0 85.86c-5.44 0-9.35-2.89-11.63-8.59-2.16-5.4-3.25-14.39-3.25-26.72s1.1-21.34 3.28-26.79c2.3-5.75 6.2-8.66 11.59-8.66s9.2 2.9 11.57 8.64c2.25 5.45 3.39 14.47 3.39 26.8S133.26 73.7 131 79.17c-2.31 5.77-6.21 8.69-11.56 8.69zm0-68.77c-4.56 0-7.74 2.42-9.74 7.4-2.08 5.21-3.14 14-3.14 26s1 20.82 3.11 26c2 4.94 5.17 7.33 9.77 7.33s7.7-2.43 9.74-7.44c2.13-5.23 3.21-13.94 3.21-25.87s-1.09-20.83-3.24-26c-2.06-4.99-5.24-7.42-9.71-7.42zM226.12 103.51h-22.64V82.8h-42.66v-16l.17-.25 44.12-65h21v62.84h12V82.8h-12zm-20.64-2h18.64V80.8h12V66.39h-12V3.57h-18l-43.3 63.84V80.8h42.66zm0-35.12h-26.92l19.34-29.23a75.71 75.71 0 0 0 6-10.8l.27-.59h2.36l-.18 1.16c-.09.57-.25 2.64-.54 9.25-.23 5.32-.34 9.45-.34 12.26zm-23.2-2h21.2v-16c0-2.84.12-7 .34-12.35.09-2.21.18-4 .26-5.49a79.25 79.25 0 0 1-4.51 7.66z"/>
    </g>
</svg>
