<svg xmlns="http://www.w3.org/2000/svg" viewBox="0 0 112.2 112.2">
    <defs>
        <style>
            .cls-1{fill:#23a538}.cls-2{fill:#fff}
        </style>
    </defs>
    <g id="Слой_2" data-name="Слой 2">
        <g id="Слой_1-2" data-name="Слой 1">
            <circle id="_Контур_" cx="56.1" cy="56.1" r="56.1" class="cls-1" data-name="Контур"/>
            <path d="M63.88 73.29a30.68 30.68 0 0 0 11-4.56A5.66 5.66 0 0 0 69 59.06a24.78 24.78 0 0 1-25.79 0 5.66 5.66 0 0 0-5.91 9.66 35.23 35.23 0 0 0 11 4.56L37.57 84a5.84 5.84 0 0 0 0 8.06 5.43 5.43 0 0 0 4 1.62 5.91 5.91 0 0 0 4-1.62L56.1 81.62l10.47 10.47A5.71 5.71 0 1 0 74.63 84zm-7.78-54.8a18.8 18.8 0 1 0 18.8 18.8 18.69 18.69 0 0 0-18.58-18.8zm0 26.86a8.06 8.06 0 1 1 8.06-8.06 7.92 7.92 0 0 1-7.78 8.06z" class="cls-2"/>
        </g>
    </g>
</svg>
