<svg xmlns="http://www.w3.org/2000/svg" xmlns:xlink="http://www.w3.org/1999/xlink"><symbol viewBox="0 0 59.89 44.38" id="arrowRight"><path d="M59.89 21.96L39.34 0l-2.55 2.39L53.63 20.4H0v3.59h53.64l-16.85 18 2.55 2.39 20.55-21.95v-.47z"/></symbol><symbol viewBox="0 0 8.26 15" id="arrowRight--slider"><g data-name="Слой 2"><path d="M0 .78L6.7 7.5 0 14.22l.78.78 7.48-7.5L.78 0z" data-name="Слой 1"/></g></symbol><symbol viewBox="0 0 407.437 407.437" id="arrowSlim--down"><path d="M386.258 91.567l-182.54 181.945L21.179 91.567 0 112.815 203.718 315.87l203.719-203.055z"/></symbol><symbol viewBox="0 0 612 612" id="clock"><path d="M587.572 186.881c-32.266-75.225-87.096-129.934-162.949-162.285C386.711 8.427 346.992.168 305.497.168c-41.488 0-80.914 8.181-118.784 24.428-75.225 32.265-130.298 86.939-162.621 162.285C7.895 224.629 0 264.176 0 305.664c0 41.496 7.895 81.371 24.092 119.127 32.323 75.346 87.403 130.348 162.621 162.621 37.877 16.247 77.295 24.42 118.784 24.42 41.489 0 81.214-8.259 119.12-24.42C500.47 555.06 555.3 500.009 587.573 424.791 603.819 386.914 612 347.16 612 305.664c0-41.488-8.174-80.907-24.428-118.783zm-48.848 253.972c-24.021 41.195-56.929 73.876-98.375 98.039-41.195 24.021-86.332 36.135-134.845 36.135-36.47 0-71.27-7.024-104.4-21.415-33.129-14.384-61.733-33.294-85.661-57.215-23.928-23.928-42.973-52.811-57.214-85.997-14.199-33.065-21.08-68.258-21.08-104.735 0-48.52 11.921-93.428 35.807-134.509 23.971-41.231 56.886-73.947 98.039-98.04 41.146-24.092 85.99-36.142 134.502-36.142 48.52 0 93.649 12.121 134.845 36.142 41.446 24.164 74.283 56.879 98.375 98.039 24.092 41.153 36.135 85.99 36.135 134.509 0 48.521-11.964 93.735-36.128 135.189z"/><path d="M324.906 302.988V129.659c0-10.372-9.037-18.738-19.41-18.738-9.701 0-18.403 8.366-18.403 18.738v176.005c0 .336.671 1.678.671 2.678-.671 6.024 1.007 11.043 5.019 15.062L392.836 423.45c6.695 6.695 19.073 6.695 25.763 0 7.694-7.695 7.188-18.86 0-26.099l-93.693-94.363z"/></symbol><symbol viewBox="0 0 371.23 371.23" id="close"><path d="M371.23 21.213L350.018 0 185.615 164.402 21.213 0 0 21.213l164.402 164.402L0 350.018l21.213 21.212 164.402-164.402L350.018 371.23l21.212-21.212-164.402-164.403z"/></symbol><symbol viewBox="0 0 335.765 335.765" id="correct-signal"><path d="M311.757 41.803L107.573 245.96l-83.587-83.596L0 186.393l107.573 107.569L335.765 65.795z"/></symbol><symbol viewBox="0 0 512 512" id="dislike"><path d="M492 213.1l.4-.5c10.4-23.6 9.6-46.8-13.2-63.5l.4-.5c10.4-23.6 9.6-46.8-13.2-63.5l.4-.5c7.2-20 5.6-10.9 6.8-26.9 0-35-25.9-57.6-64-57.6h-76.8c-42.3 0-90.6 4-133.4 10.4-11 1.8-22.1 3.5-33 5.8v-3.5c0-7.1-5.7-12.8-12.8-12.8H12.8C5.7 0 0 5.7 0 12.8V320c0 7.1 5.7 12.8 12.8 12.8h140.8c7.1 0 12.8-5.7 12.8-12.8v-2.2c28.1 16.9 48.6 43.8 69.1 68.8 5.4 7.2 10.5 15 15.6 23.8 7.2 12.4 31.2 61.4 37.2 71.1 12 19.3 25.2 30.5 44.5 30.5 36.4 0 51.2-24.3 51.2-64-1.5-47.8-14.4-95.4-34.7-138.6 28.5-2.7 57.3-2.1 85.9-2.1 48.2 0 76.8-20 76.8-57.6.4-15.3-8-27.8-20-36.6zm-351.2 94.1H25.6V25.6h115.2v281.6zm320-89.6c0 12.8 25.6 12.8 25.6 32s-12.8 32-51.2 32c-89.6 0-128 0-115.2 25.6 14 27.9 38.4 89.6 38.4 140.8 0 25.6-5.6 38.4-25.6 38.4-25.6 0-38.4-64-76.8-115.2-23.7-32.5-52.2-60.1-85.9-82.1l-3.7-1.7V42.9c54.4-13.3 110.7-15.2 166.4-17.3h76.8c25.6 0 38.4 12.8 38.4 32s-12.8 19.2-12.8 32 25.6 12.8 25.6 32-12.8 19.2-12.8 32 25.6 12.8 25.6 32-12.8 19.2-12.8 32z"/></symbol><symbol viewBox="0 0 500.004 500.004" id="doctor"><path d="M250 0c-53.876 0-97.696 43.832-97.696 97.708v50.62c0 53.88 43.82 97.712 97.696 97.712 53.88 0 97.696-43.832 97.696-97.712v-50.62C347.697 43.832 303.88 0 250 0zm215.456 373.364c-31.284-53.312-81.288-92.836-140.8-111.292a3.893 3.893 0 0 0-3.9.952c-27.684 27.296-62.084 48.592-70.684 53.736-9.18-5.868-47.848-31.072-70.836-53.736a3.895 3.895 0 0 0-3.9-.952c-59.52 18.46-109.52 57.984-140.792 111.296a3.911 3.911 0 0 0 0 3.956c44.408 75.672 126.964 122.68 215.452 122.68 88.492 0 171.052-47.008 215.46-122.68a3.9 3.9 0 0 0 0-3.96zm-82.584 29.144c0 2.156-2.052 3.804-4.204 3.804h-26.46c-2.156 0-4.508 1.852-4.508 4.012v27.364c0 2.152-1.152 3.796-3.308 3.796h-23.764c-2.156 0-4.188-1.644-4.188-3.796v-27.364c-.008-2.156-1.48-4.012-3.636-4.012h-27.6c-2.156 0-3.94-1.652-3.94-3.804v-23.56c0-2.156 1.784-3.896 3.94-3.896h27.6c2.156 0 3.628-1.76 3.628-3.92v-27.396c0-2.156 2.032-3.856 4.188-3.856h23.508c2.152 0 3.568 1.7 3.568 3.856v27.476c0 2.16 2.088 3.836 4.248 3.836h26.724c2.152 0 4.204 1.824 4.204 3.98v23.48z"/></symbol><symbol viewBox="0 0 17.5 11.5" id="down"><path d="M8.498 10.497L.495.498h16.007l-8.004 9.999z"/></symbol><symbol viewBox="0 0 512 512" id="email"><path d="M452 68H60C26.916 68 0 94.916 0 128v256c0 33.084 26.916 60 60 60h392c33.084 0 60-26.916 60-60V128c0-33.084-26.916-60-60-60zm20 316c0 11.028-8.972 20-20 20H60c-11.028 0-20-8.972-20-20V128c0-11.028 8.972-20 20-20h392c11.028 0 20 8.972 20 20v256z"/><path d="M468.604 92.937L256 251.074 43.396 92.937l-23.874 32.095L256 300.926l236.478-175.894z"/></symbol><symbol viewBox="0 0 112.196 112.196" id="fb"><path d="M70.201 58.294h-10.01v36.672H45.025V58.294h-7.213V45.406h7.213v-8.34c0-5.964 2.833-15.303 15.301-15.303l11.234.047v12.51h-8.151c-1.337 0-3.217.668-3.217 3.513v7.585h11.334l-1.325 12.876z"/></symbol><symbol viewBox="0 0 18 20" id="filter"><path d="M18 2.5H9a3 3 0 0 0-5.9 0H0v1h3.12A3 3 0 0 0 9 3.5h9zM8.07 3a2 2 0 1 1-2-2 2 2 0 0 1 2 2zM18 9.5h-2.55a3 3 0 0 0-5.9 0H0v1h9.55a3 3 0 0 0 5.9 0H18zm-3.5.5a2 2 0 1 1-2-2 2 2 0 0 1 2 2zm3.5 6.5H8.95a3 3 0 0 0-5.9 0H0v1h3.05a3 3 0 0 0 5.9 0H18zM8 17a2 2 0 1 1-2-2 2 2 0 0 1 2 2z" data-name="Слой 1"/></symbol><symbol viewBox="0 0 487.482 487.482" id="image"><path d="M477.482 63.277H10c-5.523 0-10 4.478-10 10v340.928c0 5.522 4.477 10 10 10h467.482c5.522 0 10-4.478 10-10V73.277c0-5.522-4.477-10-10-10zm-10 20v235.236l-104.018-80.07a9.998 9.998 0 0 0-11.555-.457l-68.298 44.456-134.745-92.417a10 10 0 0 0-10.706-.384L20 258.777v-175.5h447.482zM20 404.205V281.948l122.786-71.841 135.024 92.608a10.004 10.004 0 0 0 11.111.134l67.959-44.235 110.602 85.138v60.453H20z"/><path d="M280.707 218.281c26.063 0 47.266-21.202 47.266-47.264 0-26.058-21.203-47.258-47.266-47.258-26.062 0-47.264 21.2-47.264 47.258 0 26.062 21.202 47.264 47.264 47.264zm0-74.521c15.034 0 27.266 12.228 27.266 27.258 0 15.033-12.231 27.264-27.266 27.264-15.033 0-27.264-12.23-27.264-27.264 0-15.031 12.231-27.258 27.264-27.258z"/></symbol><symbol viewBox="0 0 512.009 512.009" id="like"><path d="M492.018 298.957c11.981-8.798 20.335-21.316 19.977-36.557 0-37.606-28.561-57.6-76.8-57.6-28.621-.043-57.395.597-85.914-2.15 20.301-43.238 33.169-90.846 34.714-138.65 0-39.748-14.763-64-51.2-64-19.285 0-32.418 11.264-44.467 30.524-6.076 9.745-30.029 58.692-37.231 71.117-5.094 8.781-10.214 16.64-15.573 23.791-20.523 24.986-41.054 51.831-69.12 68.762v-2.202c0-7.066-5.734-12.8-12.8-12.8h-140.8c-7.066 0-12.8 5.734-12.8 12.8v307.217c0 7.066 5.734 12.8 12.8 12.8h140.8c7.066 0 12.8-5.734 12.8-12.8v-3.482c10.931 2.347 21.973 4.028 33.007 5.845C242.17 507.981 290.478 512 332.794 512h76.8c38.118 0 64-22.647 64-57.6-1.229-16.051.375-6.938-6.818-26.931l-.358-.512c22.767-16.717 23.561-39.902 13.158-63.488l-.358-.512c22.767-16.717 23.561-39.902 13.158-63.488l-.358-.512zM140.803 486.383h-115.2V204.791h115.2v281.592zm320-191.992c0 12.8 12.8 12.8 12.8 32s-25.6 19.2-25.6 32 12.8 12.8 12.8 32-25.6 19.2-25.6 32 12.8 12.8 12.8 32-12.8 32-38.4 32h-76.8c-55.706-2.065-112.026-3.959-166.4-17.306V224.563l3.669-1.69c33.724-21.965 62.268-49.604 85.922-82.074 38.4-51.2 51.2-115.2 76.8-115.2 20.045 0 25.6 12.8 25.609 38.391 0 51.2-24.448 112.896-38.4 140.8-12.8 25.6 25.6 25.6 115.2 25.6 38.4 0 51.2 12.8 51.2 32s-25.6 19.201-25.6 32.001z"/></symbol><symbol viewBox="0 0 112.2 112.2" id="link"><path d="M29.65 63.11a13.74 13.74 0 1 0 19.43 19.43L61 70.67a13.76 13.76 0 0 0 0-19.43C61 50 59 49 57.72 49a2.29 2.29 0 0 0-2.28 2.3c0 1.26 1 2.28 2.28 3.22a9.09 9.09 0 0 1 0 13L45.84 79.31a9.16 9.16 0 1 1-13-13l11.92-11.83a2.29 2.29 0 1 0-3.19-3.28L29.65 63.11zm21.59-21.58a13.76 13.76 0 0 0 0 19.43c.22 1.25 1.9 2 3.15 1.77a2.29 2.29 0 0 0 1.86-2.65 4.12 4.12 0 0 0-1.77-2.36 9.09 9.09 0 0 1 0-13l11.87-11.83a9.16 9.16 0 1 1 13 13L67.43 57.72a2.29 2.29 0 1 0 3.2 3.28l11.91-11.92a13.74 13.74 0 1 0-19.43-19.43z"/></symbol><symbol viewBox="0 0 112.2 112.2" id="ok"><path d="M63.88 73.29a30.68 30.68 0 0 0 11-4.56A5.66 5.66 0 0 0 69 59.06a24.78 24.78 0 0 1-25.79 0 5.66 5.66 0 1 0-5.91 9.66 35.23 35.23 0 0 0 11 4.56L37.57 84a5.84 5.84 0 0 0 0 8.06 5.43 5.43 0 0 0 4 1.62 5.91 5.91 0 0 0 4-1.62L56.1 81.62l10.47 10.47A5.7 5.7 0 0 0 74.63 84zm-7.78-54.8a18.8 18.8 0 1 0 18.8 18.8 18.69 18.69 0 0 0-18.8-18.8zm0 26.86a8.06 8.06 0 1 1 8.06-8.06 7.92 7.92 0 0 1-8.06 8.06z"/></symbol><symbol viewBox="0 0 13 21.77" id="panorama"><g data-name="Слой 1"><path d="M2.12 14.07v-1.16l9-5.21v1.16l-9 5.21z"/><path d="M0 21.77V7.85L13 0v13.92zM1 8.42V20l11-6.65V1.77z"/></g></symbol><symbol viewBox="0 0 19.08 19.08" id="percent"><defs><style>.cls-1{fill:#ff1f3e}</style></defs><g id="rСлой_2" data-name="Слой 2"><g id="rСлой_1-2" data-name="Слой 1"><path class="rcls-1" d="M8.56 7.63A4.31 4.31 0 0 1 8 10a1.72 1.72 0 0 1-1.53.8A1.68 1.68 0 0 1 5 10a4.29 4.29 0 0 1-.53-2.34A4.34 4.34 0 0 1 5 5.29a1.68 1.68 0 0 1 1.5-.79 1.72 1.72 0 0 1 1.5.82 4.21 4.21 0 0 1 .56 2.31zm-3.13 0a4.58 4.58 0 0 0 .25 1.74.85.85 0 0 0 .82.63q1.12 0 1.12-2.32T6.5 5.32a.85.85 0 0 0-.82.57 4.52 4.52 0 0 0-.25 1.74zm7.39-3l-5.54 10h-1l5.54-10zm1.76 7a4.31 4.31 0 0 1-.52 2.37 1.72 1.72 0 0 1-1.54.8A1.68 1.68 0 0 1 11 14a4.33 4.33 0 0 1-.52-2.33A4.35 4.35 0 0 1 11 9.3a1.68 1.68 0 0 1 1.51-.79 1.73 1.73 0 0 1 1.51.8 4.12 4.12 0 0 1 .56 2.32zm-3.14 0a4.57 4.57 0 0 0 .25 1.75.86.86 0 0 0 .83.58.89.89 0 0 0 .85-.57 4.26 4.26 0 0 0 .27-1.75 4.15 4.15 0 0 0-.27-1.73.89.89 0 0 0-.85-.56.85.85 0 0 0-.83.56 4.46 4.46 0 0 0-.24 1.72z"/><path class="rcls-1" d="M9.54 19.08a9.54 9.54 0 1 1 9.54-9.54 9.55 9.55 0 0 1-9.54 9.54zm0-18A8.46 8.46 0 1 0 18 9.54a8.47 8.47 0 0 0-8.46-8.46z"/></g></g></symbol><symbol viewBox="0 0 221.719 221.719" id="phone"><path d="M180.135 172.169l-4.624-7.721C167.195 150.737 155.718 135 140.664 135c-2.789 0-5.551.561-8.285 1.697l-8.08 3.465c-.738.306-1.455.654-2.214 1.023-2.068 1.006-4.413 2.145-6.825 2.145-5.95 0-12.844-7.743-19.409-21.802-6.443-13.799-6.032-21.033-4.553-24.673 1.632-4.016 5.427-5.733 9.504-7.276.567-.215 1.079-.41 1.577-.615l8.182-3.445c21.316-8.914 13.386-40.065 10.786-50.278l-2.205-8.781C117.257 19.223 112.259 0 95.681 0c-3.069 0-6.343.715-9.728 2.126-2.221.882-32.785 13.358-43.858 35.276-13.234 26.089-10.787 61.074 7.266 103.961 17.918 42.941 41.153 69.206 69.06 78.064 4.787 1.521 10.197 2.291 16.081 2.291h.003c19.259 0 38.27-8.194 39.813-8.874 6.64-2.813 10.932-7.088 12.756-12.707 3.092-9.529-2.095-19.969-6.939-27.968zm-7.33 23.338c-.424 1.306-1.898 2.498-4.378 3.542l-.133.058c-.172.076-17.38 7.613-33.793 7.612-4.342 0-8.225-.534-11.541-1.588-23.511-7.463-43.615-30.86-59.766-69.565-16.271-38.657-18.871-69.401-7.717-91.389 8.661-17.143 35.776-28.018 36.042-28.122l.16-.065c1.544-.648 2.928-.99 4.002-.99 3.305 0 6.313 5.126 8.927 15.173l2.195 8.744c4.736 18.6 4.015 30.234-2.048 32.77l-8.143 3.43c-.324.134-.703.275-1.121.434-4.498 1.703-13.858 5.245-18.091 15.657-3.841 9.448-2.251 21.442 4.856 36.668 9.572 20.493 20.367 30.455 33.002 30.455 5.864 0 10.571-2.288 13.383-3.654.518-.252.981-.483 1.479-.689l8.092-3.47c.835-.348 1.637-.517 2.451-.517 3.895 0 10.879 3.857 22.001 22.191l4.621 7.716c5.695 9.403 6.145 13.673 5.52 15.599z"/></symbol><symbol viewBox="0 0 477 477" id="placeholder"><path d="M238.4 0C133 0 47.2 85.8 47.2 191.2c0 12 1.1 24.1 3.4 35.9.1.7.5 2.8 1.3 6.4 2.9 12.9 7.2 25.6 12.8 37.7 20.6 48.5 65.9 123 165.3 202.8 2.5 2 5.5 3 8.5 3s6-1 8.5-3c99.3-79.8 144.7-154.3 165.3-202.8 5.6-12.1 9.9-24.7 12.8-37.7.8-3.6 1.2-5.7 1.3-6.4 2.2-11.8 3.4-23.9 3.4-35.9C429.6 85.8 343.8 0 238.4 0zm161.2 222.4c0 .2-.1.4-.1.6-.1.5-.4 2-.9 4.3v.2c-2.5 11.2-6.2 22.1-11.1 32.6-.1.1-.1.3-.2.4-18.7 44.3-59.7 111.9-148.9 185.6-89.2-73.7-130.2-141.3-148.9-185.6-.1-.1-.1-.3-.2-.4-4.8-10.4-8.5-21.4-11.1-32.6v-.2c-.6-2.3-.8-3.8-.9-4.3 0-.2-.1-.4-.1-.7-2-10.3-3-20.7-3-31.2 0-90.5 73.7-164.2 164.2-164.2s164.2 73.7 164.2 164.2c0 10.6-1 21.1-3 31.3z"/><path d="M238.4 71.9c-66.9 0-121.4 54.5-121.4 121.4s54.5 121.4 121.4 121.4 121.4-54.5 121.4-121.4S305.3 71.9 238.4 71.9zm0 215.8c-52.1 0-94.4-42.4-94.4-94.4s42.4-94.4 94.4-94.4 94.4 42.4 94.4 94.4-42.3 94.4-94.4 94.4z"/></symbol><symbol viewBox="0 0 5.92 7.14" id="ruble"><path d="M3.37 0H1.62v3.76H0v.43h1.62v.89H0v.42h1.62v1.64h.5V5.5h2.53v-.42H2.12v-.89h1.1a3.16 3.16 0 0 0 2-.55 1.9 1.9 0 0 0 .7-1.59Q5.92 0 3.37 0zm1.48 3.36a3 3 0 0 1-1.74.4h-1V.45H3.3a2.54 2.54 0 0 1 1.57.4 1.46 1.46 0 0 1 .51 1.22 1.5 1.5 0 0 1-.53 1.29z" data-name="Слой 1"/></symbol><symbol viewBox="0 0 26.18 28.9" id="share"><defs><style>.cls-1{fill:none}</style></defs><g id="vСлой_2" data-name="Слой 2"><g id="vСлой_1-2" data-name="Слой 1"><circle cx="4.95" cy="15.32" r="4.05" class="vcls-1"/><circle cx="21.23" cy="4.95" r="4.05" class="vcls-1"/><circle cx="21.23" cy="23.95" r="4.05" class="vcls-1"/><path d="M21.23 19a4.94 4.94 0 0 0-4.42 2.77L9.3 17.63a4.8 4.8 0 0 0-.15-4.92l7.77-5.38A4.91 4.91 0 1 0 16.28 5a4.88 4.88 0 0 0 .24 1.44L8.6 12a5 5 0 1 0 .2 6.39l7.65 4.33a4.89 4.89 0 0 0-.17 1.23 5 5 0 1 0 5-5zm0-18.1a4 4 0 1 1-4 4 4.05 4.05 0 0 1 4-4zM5 19.37a4.05 4.05 0 1 1 4-4 4.05 4.05 0 0 1-4 4zM21.23 28a4 4 0 1 1 4-4 4.05 4.05 0 0 1-4 4z"/></g></g></symbol><symbol viewBox="0 0 236 236" id="tg"><path d="M98.44 136.56l-2.69 28.56s-1.12 8.75 7.63 0 17.13-15.5 17.13-15.5"/><path d="M80.13 128l-28.79-9.38s-3.44-1.4-2.33-4.56c.23-.65.69-1.21 2.06-2.17 6.38-4.45 118.1-44.6 118.1-44.6s3.16-1.06 5-.36A2.72 2.72 0 0 1 176 69a9.23 9.23 0 0 1 .25 2.54c0 .74-.1 1.42-.17 2.5-.68 11-21 92.92-21 92.92s-1.22 4.79-5.58 5a8 8 0 0 1-5.83-2.25C135.1 162.26 105.49 142.36 99 138a1.25 1.25 0 0 1-.54-.88c-.09-.46.41-1 .41-1s51.55-45.82 52.92-50.63c.11-.37-.29-.56-.83-.4-3.42 1.26-62.78 38.74-69.33 42.88a3.15 3.15 0 0 1-1.5.03z"/></symbol><symbol viewBox="0 0 112.196 112.196" id="vk"><path d="M53.979 80.702h4.403s1.33-.146 2.009-.878c.625-.672.605-1.934.605-1.934s-.086-5.908 2.656-6.778c2.703-.857 6.174 5.71 9.853 8.235 2.782 1.911 4.896 1.492 4.896 1.492l9.837-.137s5.146-.317 2.706-4.363c-.2-.331-1.421-2.993-7.314-8.463-6.168-5.725-5.342-4.799 2.088-14.702 4.525-6.031 6.334-9.713 5.769-11.29-.539-1.502-3.867-1.105-3.867-1.105l-11.076.069s-.821-.112-1.43.252c-.595.357-.978 1.189-.978 1.189s-1.753 4.667-4.091 8.636c-4.932 8.375-6.904 8.817-7.71 8.297-1.875-1.212-1.407-4.869-1.407-7.467 0-8.116 1.231-11.5-2.397-12.376-1.204-.291-2.09-.483-5.169-.514-3.952-.041-7.297.012-9.191.94-1.26.617-2.232 1.992-1.64 2.071.732.098 2.39.447 3.269 1.644 1.135 1.544 1.095 5.012 1.095 5.012s.652 9.554-1.523 10.741c-1.493.814-3.541-.848-7.938-8.446-2.253-3.892-3.954-8.194-3.954-8.194s-.328-.804-.913-1.234c-.71-.521-1.702-.687-1.702-.687l-10.525.069s-1.58.044-2.16.731c-.516.611-.041 1.875-.041 1.875s8.24 19.278 17.57 28.993c8.555 8.907 18.27 8.322 18.27 8.322z"/></symbol><symbol viewBox="0 0 112.2 112.2" id="wa"><path d="M82.15 29A35 35 0 0 0 27 71.29l-5 18.15 18.56-4.87a35 35 0 0 0 16.73 4.26A35 35 0 0 0 82.15 29zM57.38 82.91a29.06 29.06 0 0 1-14.81-4.06l-1.06-.63-11 2.89 2.94-10.74-.69-1.1a29.1 29.1 0 1 1 24.62 13.64zm16-21.8c-.87-.44-5.18-2.55-6-2.85s-1.39-.44-2 .44-2.26 2.85-2.77 3.43-1 .66-1.9.22a23.89 23.89 0 0 1-7-4.34 26.37 26.37 0 0 1-4.87-6.06c-.51-.88-.05-1.35.38-1.79s.88-1 1.31-1.53a6 6 0 0 0 .87-1.46 1.61 1.61 0 0 0-.07-1.53c-.22-.44-2-4.74-2.7-6.5s-1.43-1.47-2-1.5-1.09 0-1.68 0a3.21 3.21 0 0 0-2.33 1.09A9.81 9.81 0 0 0 39.59 46c0 4.31 3.14 8.47 3.57 9.05s6.17 9.42 14.95 13.21a50.25 50.25 0 0 0 5 1.84 12 12 0 0 0 5.51.35c1.68-.25 5.18-2.12 5.91-4.16a7.32 7.32 0 0 0 .47-4.16c-.2-.36-.78-.58-1.66-1.02z"/></symbol></svg>