<svg xmlns="http://www.w3.org/2000/svg" viewBox="0 0 156.53 54.71"><defs><style>.cls-1{fill:#ffd933;}.cls-2{fill:#23a538;}</style></defs><title>mustache____1</title><g id="Слой_2" data-name="Слой 2"><g id="Слой_1-2" data-name="Слой 1"><g id="Слой_2-2" data-name="Слой 2"><g id="Слой_1-2-2" data-name="Слой 1-2"><path class="cls-1" d="M92.25,33.28c-1.6-3-5.52-3.57-8.67-3.62A124.1,124.1,0,0,0,70,30c-7.69,1.23-9.37,9.38-5,14.56,4.07,4.82,13.14,13.9,20.14,8.49C89.7,49.49,95.29,39,92.25,33.28ZM87,42c-1.64,3.34-4.6,7.62-9,6.08-3.35-1.17-8-5.64-9.18-7.21-.89-1.19-1.75-4.54,1.17-5.23,4.37-1,9-.81,13.31-.48C88.31,35.5,88.72,38.34,87,42Z"/><path class="cls-2" d="M152.5.09c-11.41,4.55-6.85,2.34-18.22,7A304.91,304.91,0,0,0,101.19,23a1.54,1.54,0,0,0,.86,3l.25-.1a304.38,304.38,0,0,1,33-16C146.68,5.16,142,7,153.44,2.64,154.95,2,154.7-.51,152.5.09Z"/><path class="cls-2" d="M154.74,23c-5.91,1-4.93.74-15.35,3.54a233.26,233.26,0,0,0-27.49,8.73c-3,1.19-1.58,4,1.37,2.67a143,143,0,0,1,16.15-5.56c4.83-1.34,12.22-3.52,17.08-4.74,2.61-.63,5.91-1.43,7.94-1.83C157.58,25.11,156.75,22.67,154.74,23Z"/><path class="cls-2" d="M147.38,45.1c-11.26.19-23.28.2-34.4,2.28-2.55.54-1.9,3.2,1.09,2.69,10.67-2.28,21.79-2.19,32.67-2.37C149.76,47.62,149.76,45.1,147.38,45.1Z"/><path class="cls-2" d="M1,3.68C12.44,8,7.74,6.2,19.12,10.88a304.38,304.38,0,0,1,33,16l.25.1a1.54,1.54,0,0,0,.86-3A304.91,304.91,0,0,0,20.15,8.12c-11.37-4.65-6.81-2.44-18.22-7C-.36.54-.53,3.08,1,3.68Z"/><path class="cls-2" d="M4.77,25.1c2,.4,4.5,1.09,7.11,1.72,4.86,1.22,9.13,2.45,14,3.79A145.33,145.33,0,0,1,42,36.46c3,1.33,4.37-1.48,1.37-2.67-9-3.47-13.58-5.22-22.91-7.56-10.41-2.8-10.11-3-16-3.94C2.45,21.92,1.66,24.56,4.77,25.1Z"/><path class="cls-2" d="M8.55,47.52c10.88.18,22,.09,32.67,2.37,3,.51,3.64-2.15,1.09-2.69-11.12-2.08-23.14-2.09-34.4-2.28C5.53,44.92,5.53,47.44,8.55,47.52Z"/></g></g></g></g></svg>