<svg xmlns="http://www.w3.org/2000/svg" viewBox="0 0 74.34 42.86"><defs><style>.cls-1{fill:#ffd933;}.cls-2{fill:#23a538;}</style></defs><title>crown2__</title><g id="Слой_2" data-name="Слой 2"><g id="Слой_1-2" data-name="Слой 1"><path class="cls-1" d="M74.29,28.34,68.49,1.6A2,2,0,0,0,65.24.42L36.86,19.89A83.63,83.63,0,0,1,19.65,17a145.09,145.09,0,0,1-17-6.84c-1.72-.78-3,1.24-2.5,2.72,3.26,9,5.38,20.61,7,27.52.54,2.27,2.29,3,3.83,2.12L37.87,24c11.53,1.17,22.66,2.81,33.77,6.55A2,2,0,0,0,74.29,28.34Zm-42.53-5-21,14.4A149.31,149.31,0,0,0,5.3,15.66C13.91,19.32,22.43,22.16,31.77,23.39ZM65.19,5.28l4.45,20.47a143.17,143.17,0,0,0-26.58-5.29Z"/><path class="cls-2" d="M42.44,28c-1.65-6.41-1.33-6.33-3-12.74-1.12-4.34-8-3.12-6.89,1.25,1.65,6.41,1.33,6.33,3,12.74C36.67,33.56,43.57,32.35,42.44,28Z"/></g></g></svg>