<svg xmlns="http://www.w3.org/2000/svg" viewBox="0 0 85.11 60.79"><defs><style>.cls-1{fill:#ffd933;}.cls-2{fill:#23a538;}</style></defs><title>crown_</title><g id="Слой_2" data-name="Слой 2"><g id="Слой_1-2" data-name="Слой 1"><path class="cls-1" d="M79.76,7.54,67.13,17.25c-2.1,1.62-4.27,3.17-6.32,4.86-1.38,1.14-2.71,0-3.47-1.13A203.7,203.7,0,0,0,40,.79C38.32-.81,35.26,0,34.52,3.36c-1.26,6.76-5.09,21.8-8.11,28.1a2.38,2.38,0,0,1-1.73,1.14c-1.46.33-4.21-.29-6-.44l-15-1.25a3.54,3.54,0,0,0-3,5.73c6.09,8,11.2,14.51,17.19,22.6,1.41,1.91,3.89,1.94,8.69.7l53-13.31a3.58,3.58,0,0,0,2.86-3.16C83,32.37,84.14,21.33,85.1,10.1A3.28,3.28,0,0,0,79.76,7.54ZM11,38.55l10.94.91c4.05.34,8.21,1.27,10-2.91a158.47,158.47,0,0,0,8.44-25.87,78.07,78.07,0,0,1,7.32,8.74C50.08,22.72,55,30,57.17,30.59c3.18.57,7.57-2.67,10.48-4.91l9.56-7.35a200.15,200.15,0,0,0-1.69,22.12C58.14,44.8,22.8,53.68,22.56,53.8Z"/><path class="cls-2" d="M27.76,45.29c-2.55,0-2.9,4-.32,4S30.34,45.29,27.76,45.29Z"/><path class="cls-2" d="M46,36.88c-2.55,0-2.9,4-.32,4S48.59,36.88,46,36.88Z"/><path class="cls-2" d="M66.6,34.46c-2.55,0-2.9,4-.32,4S69.18,34.46,66.6,34.46Z"/></g></g></svg>