<svg xmlns="http://www.w3.org/2000/svg" viewBox="0 0 112.07 111.97">
    <defs>
        <style>
            .cls-1{fill:#23a538}.cls-2{fill:#fff}
        </style>
    </defs>
    <g id="Слой_2" data-name="Слой 2">
        <g id="Слой_1-2" data-name="Слой 1">
            <path d="M35.85 3.8a56.1 56.1 0 0 0-35 62v.46a56.09 56.09 0 0 0 110.38-20v-.17a.51.51 0 0 0-.06-.29 56.08 56.08 0 0 0-75.39-42z" class="cls-1"/>
            <path d="M20 42.51c.23-1.65.41-3.31.71-5C22.39 28.28 29 22 38.36 21.64c11.31-.39 22.65-.41 34 0C82.58 22 90 29.58 90.31 39.81q.51 16.29 0 32.61c-.31 10.23-7.72 17.8-17.95 18.17q-17 .62-34 0c-10.23-.38-17.29-8-18-18.21-.06-.89-.25-1.76-.38-2.65zm35.27 42c5.18 0 10.36.15 15.52 0 8.1-.3 13.09-5.14 13.28-13.23q.35-15.13 0-30.28c-.19-8.09-5.18-13-13.28-13.22q-15.42-.33-30.85 0c-8 .17-13 5-13.26 13q-.42 15.32 0 30.66c.22 8 5.22 12.74 13.26 13 5.06.23 10.22.08 15.33.08z" class="cls-2"/>
            <path d="M55.26 38.14a18 18 0 1 0 18 18 18 18 0 0 0-18-18zm0 29.75A11.78 11.78 0 1 1 67 56.07 11.78 11.78 0 0 1 55.26 67.9zM78.56 37.32A4.28 4.28 0 1 1 74.28 33a4.28 4.28 0 0 1 4.28 4.3v.02z" class="cls-2"/>
        </g>
    </g>
</svg>
