<svg xmlns="http://www.w3.org/2000/svg" viewBox="0 0 139.29 131.44">
    <defs>
        <style>
            .cls-1{fill:none;stroke:#999;stroke-miterlimit:10;stroke-width:.5px}
        </style>
    </defs>
    <g id="Слой_2" data-name="Слой 2">
        <path id="Capa_1" d="M56.44 123a16.68 16.68 0 0 0-1.25-7.66c-1.57-3.79-6.32-5.42-6.32-5.42S47.72 115.37 50 119a12.62 12.62 0 0 0 3.37 3.2 58.35 58.35 0 0 1-6.78-2.42 16.31 16.31 0 0 0 .11-7.64c-.87-3.92-5.18-6.31-5.18-6.31s-2 5.09-.49 8.95a12.5 12.5 0 0 0 2.76 3.71c-1.33-.65-2.7-1.37-4.1-2.19-.77-.42-1.54-.87-2.31-1.36a15.94 15.94 0 0 0 1.44-7.43c-.18-3.94-3.93-7-3.93-7s-2.83 4.56-2 8.55a12.86 12.86 0 0 0 2.22 4.32 53.37 53.37 0 0 1-5.92-4.95 15.61 15.61 0 0 0 2.67-7c.5-3.83-2.6-7.39-2.6-7.39S25.69 98 25.82 102a12.5 12.5 0 0 0 1.37 4.47 62 62 0 0 1-4.9-5.89A15.33 15.33 0 0 0 26 94.4c1.13-3.61-1.25-7.58-1.25-7.58s-4.08 3.18-4.63 7.06a11.78 11.78 0 0 0 .5 4.32 62.79 62.79 0 0 1-3.71-6.39 15 15 0 0 0 4.66-5.38c1.71-3.29.08-7.53.08-7.53s-4.46 2.38-5.65 6a12 12 0 0 0-.23 4.48 58.21 58.21 0 0 1-2.67-7.08 14.7 14.7 0 0 0 5.49-4.43c2.21-2.88 1.36-7.25 1.36-7.25s-4.71 1.54-6.48 4.86a12.18 12.18 0 0 0-1 4.56 53.2 53.2 0 0 1-1.4-7.81 14.36 14.36 0 0 0 6.1-3.35c2.63-2.41 2.55-6.77 2.55-6.77s-4.81.69-7.08 3.59a12 12 0 0 0-1.77 4.3 52.29 52.29 0 0 1-.11-8.25 14 14 0 0 0 6.55-2.21c2.94-1.88 3.61-6.1 3.61-6.1s-4.76-.15-7.44 2.25a12.49 12.49 0 0 0-2.56 4.14 57.46 57.46 0 0 1 1.54-8.59 13.8 13.8 0 0 0 6.68-1c3.16-1.31 4.52-5.27 4.52-5.27s-4.57-1-7.57.91A12 12 0 0 0 13 49.27a62.3 62.3 0 0 1 3-8.06 13.5 13.5 0 0 0 6.62.16c3.27-.73 5.26-4.32 5.26-4.32s-4.24-1.7-7.46-.41a11.76 11.76 0 0 0-3.59 2.81A62.39 62.39 0 0 1 21.14 32a13.18 13.18 0 0 0 6.47 1.33c3.28-.15 5.81-3.27 5.81-3.27s-3.8-2.36-7.13-1.66A12.36 12.36 0 0 0 22 30.75a54.81 54.81 0 0 1 5.77-6.87 12.87 12.87 0 0 0 6.12 2.46c3.19.42 6.17-2.17 6.17-2.17s-3.27-2.93-6.6-2.82a12.85 12.85 0 0 0-4.9 1.74 43 43 0 0 1 3.4-3c1.29-1.07 2.56-2 3.81-2.93a12.62 12.62 0 0 0 5.47 3.4c3 .95 6.32-1 6.32-1s-2.66-3.38-5.89-3.84a12.52 12.52 0 0 0-5 .83A60.19 60.19 0 0 1 44.58 12a12.25 12.25 0 0 0 4.76 4.31c2.74 1.43 6.28.07 6.28.07s-2-3.72-5-4.71a13.19 13.19 0 0 0-5.37 0 57.13 57.13 0 0 1 5.49-2.22 6.67 6.67 0 0 0 4.72.58 9.5 9.5 0 0 0 4.32-2.94S56.78 6 55 6.27c-2.22.38-4 2.54-4.41 3-1.23.39-2.71.9-4.37 1.59A12.91 12.91 0 0 0 50 7.22c1.5-2.83.35-6.88.35-6.88s-3.49 1.48-4.47 4.41a12.29 12.29 0 0 0-.43 6.44 58.56 58.56 0 0 0-8.13 4.31 12.6 12.6 0 0 0 3-4.14c1-3.11-.87-7-.87-7s-3.24 2.1-3.71 5.22a12.54 12.54 0 0 0 .69 6.5c-1.58 1-3.21 2.22-4.85 3.55-.73.55-1.46 1.15-2.19 1.77a11.76 11.76 0 0 0 1.91-4.2c.46-3.3-2.11-6.86-2.11-6.86S26.3 13 26.38 16.25a12.93 12.93 0 0 0 1.76 6.27A53.26 53.26 0 0 0 22.29 29a11.63 11.63 0 0 0 1.11-4.38c-.13-3.4-3.34-6.52-3.34-6.52s-2.42 3.21-1.77 6.43a13.17 13.17 0 0 0 2.87 6 62.76 62.76 0 0 0-4.69 7.57 12 12 0 0 0 .36-4.7c-.73-3.39-4.51-6-4.51-6s-1.87 3.66-.64 6.78a13.42 13.42 0 0 0 4 5.51 63.15 63.15 0 0 0-3.24 7.91 11.6 11.6 0 0 0-.49-4.44C10.58 39.88 6.32 38 6.32 38s-1.23 4 .55 6.92a13.74 13.74 0 0 0 4.87 4.79A58.61 58.61 0 0 0 10 57.57a10.92 10.92 0 0 0-1.2-3.86c-1.92-3.05-6.53-4.22-6.53-4.22s-.53 4.24 1.78 6.86a14.12 14.12 0 0 0 5.62 3.91 54.29 54.29 0 0 0-.22 7.91 11 11 0 0 0-1.87-3.6c-2.46-2.74-7.3-3.1-7.3-3.1s.22 4.36 3 6.58A14.38 14.38 0 0 0 9.65 71a54 54 0 0 0 1 7.43 11 11 0 0 0-2.45-3.19c-3-2.31-7.9-1.81-7.9-1.81s1 4.34 4.19 6.08a14.68 14.68 0 0 0 6.86 1.82 58.67 58.67 0 0 0 2.38 7.12 11.4 11.4 0 0 0-3.07-2.81c-3.39-1.79-8.25-.41-8.25-.41s1.77 4.18 5.28 5.37a15 15 0 0 0 7.23.61 63.46 63.46 0 0 0 3.6 6.66 11.68 11.68 0 0 0-3.64-2.33c-3.72-1.2-8.37 1-8.37 1S9 100.46 12.78 101a15.31 15.31 0 0 0 7.38-.67 63.74 63.74 0 0 0 4.43 5.74 11.27 11.27 0 0 0-3.74-1.5c-4-.55-8.22 2.53-8.22 2.53s3.22 3.46 7.08 3.37a15.65 15.65 0 0 0 7.17-1.91 57 57 0 0 0 5.1 4.68 10.81 10.81 0 0 0-3.67-.72c-4.07.15-7.82 4-7.82 4s3.85 2.91 7.71 2.13a16 16 0 0 0 6.8-3.14c1.23.85 2.47 1.62 3.7 2.3q1.17.7 2.32 1.31a11.36 11.36 0 0 0-4-.1c-4.06.87-7.14 5.41-7.14 5.41s4.38 2.24 8.13.77a16.31 16.31 0 0 0 6.32-4.41 60.88 60.88 0 0 0 6.36 2.55 11.46 11.46 0 0 0-3.95.61c-3.93 1.6-6.22 6.7-6.22 6.7s4.8 1.47 8.3-.66a16.62 16.62 0 0 0 5.56-5.53 52.25 52.25 0 0 0 9.09 1.71l.1-1 .1-1a52.87 52.87 0 0 1-7.23-1.17zm78.36-43.49c3.2-1.74 4.2-6.08 4.2-6.08s-4.93-.5-7.9 1.81a11 11 0 0 0-2.46 3.18 53.69 53.69 0 0 0 1-7.43A14.36 14.36 0 0 0 136 68c2.79-2.22 3-6.58 3-6.58s-4.84.36-7.31 3.09a11 11 0 0 0-1.87 3.6 53.75 53.75 0 0 0-.22-7.91 14.11 14.11 0 0 0 5.62-3.91c2.31-2.62 1.78-6.86 1.78-6.86s-4.61 1.17-6.53 4.22a10.93 10.93 0 0 0-1.2 3.87 58.9 58.9 0 0 0-1.74-7.89 13.76 13.76 0 0 0 4.87-4.79c1.8-2.84.6-6.84.6-6.84s-4.25 1.91-5.59 5.19a11.63 11.63 0 0 0-.49 4.44 63.17 63.17 0 0 0-3.24-7.91 13.42 13.42 0 0 0 4-5.51c1.22-3.12-.64-6.78-.64-6.78s-3.78 2.57-4.51 6a12.09 12.09 0 0 0 .36 4.71 62.85 62.85 0 0 0-4.69-7.57 13.17 13.17 0 0 0 2.87-6c.65-3.22-1.77-6.43-1.77-6.43s-3.21 3.12-3.34 6.52A11.6 11.6 0 0 0 117 29a53.6 53.6 0 0 0-5.85-6.45 12.93 12.93 0 0 0 1.76-6.27c.08-3.22-2.81-5.9-2.81-5.9s-2.57 3.56-2.11 6.86a11.72 11.72 0 0 0 1.93 4.21 35.35 35.35 0 0 0-2.19-1.77c-1.65-1.33-3.27-2.5-4.85-3.55a12.53 12.53 0 0 0 .7-6.5c-.47-3.12-3.71-5.22-3.71-5.22S98 8.25 99 11.36a12.63 12.63 0 0 0 3 4.14 58.4 58.4 0 0 0-8.13-4.32 12.29 12.29 0 0 0-.43-6.44c-1-2.93-4.47-4.41-4.47-4.41s-1.14 4.06.35 6.88a12.91 12.91 0 0 0 3.79 3.64c-1.66-.69-3.13-1.2-4.37-1.59-.37-.47-2.19-2.63-4.41-3-1.78-.3-4.76.84-4.76.84a9.5 9.5 0 0 0 4.32 2.94 6.67 6.67 0 0 0 4.72-.58 57.12 57.12 0 0 1 5.49 2.22 13.2 13.2 0 0 0-5.37 0c-3 1-5 4.71-5 4.71s3.53 1.36 6.28-.07a12.25 12.25 0 0 0 4.7-4.32 60 60 0 0 1 7.87 4.56 12.51 12.51 0 0 0-5-.83c-3.23.46-5.89 3.84-5.89 3.84s3.31 2 6.32 1a12.62 12.62 0 0 0 5.47-3.4c1.25.89 2.52 1.86 3.81 2.93a43.68 43.68 0 0 1 3.4 3 12.86 12.86 0 0 0-4.9-1.74c-3.33-.11-6.6 2.82-6.6 2.82s3 2.59 6.17 2.17a12.85 12.85 0 0 0 6.12-2.46 55 55 0 0 1 5.77 6.87 12.35 12.35 0 0 0-4.3-2.37c-3.32-.7-7.13 1.66-7.13 1.66s2.53 3.13 5.81 3.27a13.18 13.18 0 0 0 6.52-1.32 62.33 62.33 0 0 1 4.32 7.47 11.72 11.72 0 0 0-3.6-2.82c-3.21-1.29-7.46.41-7.46.41s2 3.59 5.26 4.32a13.49 13.49 0 0 0 6.62-.16 62 62 0 0 1 3 8.06 12 12 0 0 0-3.1-3.44c-3-1.87-7.56-.91-7.56-.91s1.36 4 4.52 5.27a13.8 13.8 0 0 0 6.68 1 57.44 57.44 0 0 1 1.54 8.59 12.5 12.5 0 0 0-2.56-4.14c-2.69-2.41-7.44-2.25-7.44-2.25s.67 4.22 3.61 6.1a14.05 14.05 0 0 0 6.56 2.21 52.55 52.55 0 0 1-.11 8.25 12.07 12.07 0 0 0-1.76-4.27c-2.27-2.9-7.08-3.59-7.08-3.59s-.08 4.36 2.55 6.77a14.36 14.36 0 0 0 6.1 3.35 53.46 53.46 0 0 1-1.4 7.81 12.22 12.22 0 0 0-1-4.56c-1.77-3.31-6.48-4.86-6.48-4.86s-.85 4.37 1.36 7.25a14.7 14.7 0 0 0 5.49 4.43 58.21 58.21 0 0 1-2.67 7.12 11.92 11.92 0 0 0-.23-4.48c-1.19-3.64-5.65-6-5.65-6s-1.63 4.24.08 7.53a15 15 0 0 0 4.66 5.38 62.07 62.07 0 0 1-3.71 6.39 11.78 11.78 0 0 0 .5-4.32c-.55-3.87-4.61-7.06-4.61-7.06s-2.39 4-1.26 7.58a15.28 15.28 0 0 0 3.7 6.19 62.17 62.17 0 0 1-4.9 5.89 12.5 12.5 0 0 0 1.37-4.47c.13-4-3.38-7.91-3.38-7.91s-3.1 3.57-2.6 7.39a15.64 15.64 0 0 0 2.67 7 53.07 53.07 0 0 1-5.92 4.95 12.81 12.81 0 0 0 2.22-4.32c.84-4-2-8.55-2-8.55s-3.75 3-3.93 7a16 16 0 0 0 1.44 7.43c-.77.49-1.54.94-2.31 1.36-1.4.82-2.77 1.54-4.1 2.19a12.5 12.5 0 0 0 2.76-3.71c1.54-3.86-.49-8.95-.49-8.95s-4.31 2.38-5.18 6.31a16.31 16.31 0 0 0 .11 7.64 58.35 58.35 0 0 1-6.78 2.31 12.61 12.61 0 0 0 3.37-3.2c2.24-3.6 1.09-9.08 1.09-9.08s-4.75 1.63-6.32 5.42a16.7 16.7 0 0 0-1.29 7.68 52.82 52.82 0 0 1-7.25 1.21l.1 1 .1 1a52.25 52.25 0 0 0 9.09-1.71 16.63 16.63 0 0 0 5.56 5.5c3.5 2.14 8.3.66 8.3.66s-2.29-5.1-6.22-6.7a11.46 11.46 0 0 0-3.95-.61 60.88 60.88 0 0 0 6.36-2.55 16.3 16.3 0 0 0 6.32 4.41c3.74 1.47 8.13-.77 8.13-.77s-3.08-4.53-7.14-5.41a11.37 11.37 0 0 0-4 .1q1.15-.62 2.32-1.31a43.51 43.51 0 0 0 3.7-2.3 16 16 0 0 0 6.81 3.14c3.86.78 7.71-2.13 7.71-2.13s-3.74-3.85-7.82-4a10.81 10.81 0 0 0-3.67.72 57.32 57.32 0 0 0 5.1-4.68 15.63 15.63 0 0 0 7.17 1.91c3.86.09 7.08-3.37 7.08-3.37s-4.27-3.08-8.22-2.53a11.27 11.27 0 0 0-3.74 1.5 63.73 63.73 0 0 0 4.43-5.74 15.31 15.31 0 0 0 7.38.67c3.74-.57 6.26-4.45 6.26-4.45s-4.64-2.25-8.37-1a11.67 11.67 0 0 0-3.64 2.33 63.83 63.83 0 0 0 3.6-6.66 15 15 0 0 0 7.23-.61c3.52-1.18 5.28-5.37 5.28-5.37s-4.86-1.38-8.25.41a11.4 11.4 0 0 0-3.07 2.81 59 59 0 0 0 2.38-7.12 14.69 14.69 0 0 0 6.88-1.84z" class="cls-1" data-name="Capa 1"/>
    </g>
</svg>
